<svg viewBox="0 0 24 24" fill="none" xmlns="http://www.w3.org/2000/svg"><path d="M16 7v-.8q0-1.6-.2-2.1a2 2 0 0 0-.9-.9q-.5-.2-2.1-.2h-1.6q-1.6 0-2.1.2a2 2 0 0 0-.9.9Q8 4.6 8 6.2V7m-5 3c.4.4 4.3 4 9 4s8.6-3.6 9-4M3 10v6.2c0 1.7 0 2.5.3 3.2q.5.8 1.3 1.3c.7.3 1.5.3 3.2.3h8.4c1.7 0 2.5 0 3.2-.3a3 3 0 0 0 1.3-1.3c.3-.7.3-1.5.3-3.2V10M3 10q0-.8.3-1.4.5-.8 1.3-1.3C5.3 7 6.1 7 7.8 7h8.4c1.7 0 2.5 0 3.2.3q.8.5 1.3 1.3L21 10" stroke="currentColor" stroke-width="2" stroke-linecap="round" stroke-linejoin="round"/></svg>