<svg viewBox="0 0 24 24" fill="none" xmlns="http://www.w3.org/2000/svg"><g fill="currentColor"><path d="M13 11.881V6a1 1 0 1 0-2 0v6.467c0 .349.218.695.517.867l4.62 2.668a1 1 0 1 0 1-1.732z"/><path fill-rule="evenodd" clip-rule="evenodd" d="M12 0a1 1 0 0 0-1 1v.045a11 11 0 0 0-3.539.932 4.9 4.9 0 0 0-1.3-1.045c-.54-.29-1.235-.504-2.033-.4-.802.104-1.59.515-2.335 1.26C1.047 2.54.636 3.327.532 4.129c-.104.798.11 1.493.4 2.034A4.9 4.9 0 0 0 1.977 7.46 11 11 0 0 0 1 12c0 2.673.953 5.123 2.539 7.03l-1.24 1.24a1 1 0 0 0 1.415 1.415l1.239-1.239A10.96 10.96 0 0 0 12 23c2.681 0 5.139-.96 7.047-2.554l1.238 1.239a1 1 0 0 0 1.416-1.416l-1.24-1.24A10.96 10.96 0 0 0 23 12c0-1.617-.35-3.154-.977-4.538a4.9 4.9 0 0 0 1.045-1.3c.29-.54.504-1.235.4-2.033-.105-.802-.515-1.59-1.261-2.335-.746-.746-1.533-1.157-2.336-1.261-.797-.104-1.492.11-2.033.4-.59.318-1.027.74-1.3 1.045A11 11 0 0 0 13 1.045V1a1 1 0 0 0-1-1m6.337 3.008a11 11 0 0 1 2.655 2.655c.116-.134.227-.286.315-.45.146-.272.215-.545.178-.826-.036-.276-.188-.676-.692-1.18s-.904-.656-1.18-.692c-.281-.037-.554.031-.826.178a2.5 2.5 0 0 0-.45.315M3.007 5.663a11 11 0 0 1 2.656-2.655 2.5 2.5 0 0 0-.45-.315c-.272-.147-.545-.215-.826-.178-.276.036-.676.188-1.18.692s-.656.904-.692 1.18c-.037.28.031.554.178.826.088.164.199.316.315.45M12 20.993a8.993 8.993 0 1 1 0-17.986 8.993 8.993 0 0 1 0 17.986"/></g></svg>