<svg viewBox="0 0 24 24" fill="none" xmlns="http://www.w3.org/2000/svg"><path d="M3 5.5a15.5 15.5 0 0 0 16.65 15.46c.43-.03.65-.05.85-.16q.26-.17.4-.44c.1-.2.1-.44.1-.92v-2.82c0-.4 0-.6-.07-.78a1 1 0 0 0-.27-.4c-.14-.12-.33-.18-.71-.32l-3.21-1.17c-.44-.16-.66-.24-.87-.23a1 1 0 0 0-.52.19c-.17.12-.29.32-.53.72L14 16a12 12 0 0 1-6-6l1.37-.82c.4-.24.6-.36.72-.53a1 1 0 0 0 .19-.52 3 3 0 0 0-.23-.87l-1.17-3.2c-.14-.39-.2-.58-.33-.72a1 1 0 0 0-.4-.27C7.99 3 7.79 3 7.39 3H4.56c-.48 0-.72 0-.92.1q-.27.14-.44.4c-.11.2-.13.42-.16.85Q3 4.92 3 5.5" stroke="currentColor" stroke-width="2" stroke-linecap="round" stroke-linejoin="round"/></svg>