<svg viewBox="0 0 20 20" xmlns="http://www.w3.org/2000/svg"><path d="M9.88 0A9.9 9.9 0 0 0 0 9.96c0 4.1 2.4 7.53 5.9 9.12 0-1.87-.02-1.63 1.4-7.7C6.52 9.8 7.13 7.2 8.88 7.2c2.43 0 .78 3.6.5 5.02-.25 1.09.58 1.92 1.58 1.92 1.9 0 3.15-2.42 3.15-5.27 0-2.18-1.5-3.77-4.07-3.77-4.57 0-5.73 5.1-4.15 6.7.4.6 0 .63 0 1.42-.27.84-2.49-.38-2.49-3.51 0-2.85 2.33-6.2 7.06-6.2 3.73 0 6.22 2.77 6.22 5.7 0 3.93-2.16 6.77-5.31 6.77-1.08 0-2.08-.58-2.4-1.25-.61 2.34-.73 3.53-1.67 4.85A9.9 9.9 0 0 0 20 10.04C19.75 4.44 15.35 0 9.88 0"/></svg>