<svg xmlns="http://www.w3.org/2000/svg" viewBox="0 0 512 512"><path d="M119.47 66.59C53.5 66.59 0 120.09 0 186.1c0 65.98 53.49 119.49 119.47 119.49 0 0-.58 44.39-36.64 108.28a24.27 24.27 0 0 0 15.94 30.42 24.3 24.3 0 0 0 24.83-6.39C206.53 347.2 239 240.45 239 186.1c0-66-53.49-119.51-119.52-119.51m273 0c-65.98 0-119.47 53.5-119.47 119.51 0 65.98 53.49 119.49 119.47 119.49 0 0-.58 44.39-36.64 108.28a24.27 24.27 0 0 0 15.95 30.42 24.3 24.3 0 0 0 24.82-6.39C479.54 347.2 512 240.45 512 186.1c0-66-53.49-119.51-119.52-119.51"/></svg>