<svg viewBox="0 -1.5 20 20" xmlns="http://www.w3.org/2000/svg"><path d="M13.03 11.25a1.41 1.41 0 0 1 0-2.82 1.41 1.41 0 0 1 0 2.82m.2 2.58q-1 1.01-3.23 1.01t-3.22-1.01a.4.4 0 0 1 0-.54.37.37 0 0 1 .52 0q.78.8 2.7.8t2.7-.8a.37.37 0 0 1 .52 0c.15.15.15.4 0 .54M5.59 9.85c0-.77.64-1.42 1.4-1.42s1.38.65 1.38 1.42a1.39 1.39 0 1 1-2.78 0M20 8.31a2.3 2.3 0 0 0-2.27-2.3c-.57 0-1.11.22-1.53.61-1.5-.98-3.5-1.62-5.71-1.7l1.22-3.8 3.21.77c0 1.05.84 1.9 1.87 1.9 1.02 0 1.86-.86 1.86-1.9S17.81 0 16.79 0c-.77 0-1.44.47-1.72 1.15L11.21.23 9.71 4.9c-2.3.05-4.4.68-5.94 1.7a2.2 2.2 0 0 0-1.5-.58 2.3 2.3 0 0 0-1.19 4.25C.48 13.88 4.67 17 9.96 17c5.26 0 9.45-3.1 8.89-6.69.7-.4 1.15-1.15 1.15-2"/></svg>