<svg viewBox="0 -.5 20 20" xmlns="http://www.w3.org/2000/svg"><path d="M10.13 19c-1.3 0-1.85-.29-2.95-1.07-.99-.71-1.62-1.1-3.46-.74-.72.14-.7.08-.86-.64-.08-.37-.14-.6-.28-.63-1.49-.23-2.37-.57-2.55-.99-.08-.2.02-.36.17-.38 1.95-.33 3.52-1.96 4.2-3.57l.01-.01q.25-.54.1-.91c-.23-.56-.99-.68-1.53-.9-.38-.15-1-.46-.9-.9.07-.4.7-.65 1.05-.49.86.41 1.54.29 1.75.1-.01-.2.12-.41.12-.61 0-1.38-.35-3.1.09-4.08 1.87-4.25 8.12-4.23 9.98 0 .43.98.33 2.7.24 4.08v.07l-.04.53c.04.04.2.17.53.18q.42 0 .96-.27c.42-.2 1.17.1 1.18.56 0 .21-.16.53-.92.83-.54.22-1.3.34-1.53.9q-.15.38.1.9v.02c.06.13 1.34 3.09 4.2 3.57q.21.05.21.25l-.03.13c-.18.42-1.06.76-2.55 1-.14.01-.2.24-.28.62-.13.57-.1.77-.86.62-1.82-.36-2.5.07-3.46.75-.7.5-1.5 1.08-2.7 1.08"/></svg>