<svg viewBox="0 -1 26 26" fill="none" xmlns="http://www.w3.org/2000/svg"><path clip-rule="evenodd" d="M12.31 16.826c-.024 1.17-.964 2.102-2.105 2.086s-2.056-.974-2.048-2.144.935-2.116 2.076-2.116a2.07 2.07 0 0 1 1.478.646c.39.408.605.957.599 1.528m9.891 0c-.023 1.17-.963 2.102-2.104 2.086s-2.056-.974-2.049-2.144.935-2.116 2.077-2.116a2.07 2.07 0 0 1 1.477.646c.39.408.605.957.6 1.528" stroke="currentColor" stroke-width="1.5" stroke-linecap="round" stroke-linejoin="round"/><path d="M17.803 17.576a.75.75 0 0 0 0-1.5zm-5.493-1.5a.75.75 0 0 0 0 1.5zm4.747.75a.75.75 0 1 0 1.5 0zm1.5-5.267a.75.75 0 0 0-1.5 0zm-.75 4.517a.75.75 0 1 0 0 1.5zm.245 1.5a.75.75 0 0 0 0-1.5zm4.137-1.5a.75.75 0 1 0 .032 1.5zm2.211-1.591.75-.013a1 1 0 0 0-.011-.115zm.23-3.054a.75.75 0 0 0-1.478.257zm-6.827-5.304a.75.75 0 0 0 0 1.5zm3.482.75v.75h.005zm1.589.687-.547.513zm.61 1.654-.75-.032a1 1 0 0 0 .01.16zm-.332 2.47a.75.75 0 1 0 1.478-.258zm-4.599-4.811a.75.75 0 1 0-1.5 0zm-1.5 4.682a.75.75 0 0 0 1.5 0zm0-4.682a.75.75 0 0 0 1.5 0zm.75-.8-.75-.005v.005zM16.766 5l.004-.75h-.004zM7.42 5v-.75h-.003zm-.736.317-.54-.521zm-.302.758h.75v-.003zm0 9.675.75.003v-.003zm.302.758-.54.521zm.736.317-.003.75h.003zm.733.75a.75.75 0 0 0 0-1.5zm9.652-6.767a.75.75 0 0 0 0 1.5zm6.088 1.5a.75.75 0 0 0 0-1.5zM1 6.25a.75.75 0 0 0 0 1.5zm3.052 1.5a.75.75 0 0 0 0-1.5zm-2.077 1.5a.75.75 0 0 0 0 1.5zm1.95 1.5a.75.75 0 0 0 0-1.5zm-1.355 1.5a.75.75 0 0 0 0 1.5zm1.355 1.5a.75.75 0 0 0 0-1.5zm13.878 2.326H12.31v1.5h5.493zm.754.75v-5.267h-1.5v5.267zm-.75.75h.245v-1.5h-.245zm4.415 0c1.666-.036 2.957-1.442 2.928-3.104l-1.5.026c.016.872-.656 1.56-1.461 1.578zm2.917-3.22-.509-2.925-1.478.257.51 2.925zm-7.336-6.729h3.482v-1.5h-3.482zm3.487 0a1.4 1.4 0 0 1 1.037.45L23.42 7.05a2.9 2.9 0 0 0-2.14-.923zm1.037.45c.275.294.425.694.407 1.109l1.499.064a3.03 3.03 0 0 0-.813-2.2zm.418 1.27.407 2.34 1.478-.257-.408-2.34zm-5.692-2.47v4.682h1.5V6.877zm1.5 0v-.8h-1.5v.8zm0-.795a1.83 1.83 0 0 0-.51-1.284l-1.081 1.04c.057.06.092.143.091.234zm-.51-1.284a1.78 1.78 0 0 0-1.273-.548l-.008 1.5a.28.28 0 0 1 .2.088zm-1.277-.548H7.42v1.5h9.346zm-9.35 0a1.78 1.78 0 0 0-1.271.546l1.079 1.042a.28.28 0 0 1 .2-.088zm-1.271.546a1.83 1.83 0 0 0-.513 1.282l1.5-.006c0-.091.035-.175.092-.234zm-.513 1.279v9.675h1.5V6.075zm0 9.672c-.002.476.18.938.513 1.282l1.079-1.042a.34.34 0 0 1-.092-.234zm.513 1.282c.333.345.79.544 1.272.546l.007-1.5a.28.28 0 0 1-.2-.088zm1.275.546h.733v-1.5H7.42zm10.385-5.267h6.088v-1.5h-6.088zM1 7.75h3.052v-1.5H1zm.975 3h1.95v-1.5h-1.95zm.595 3h1.355v-1.5H2.57z" fill="currentColor"/></svg>